<svg width="19" height="19" viewBox="0 0 19 19" fill="none" xmlns="http://www.w3.org/2000/svg">
<path d="M10.5053 6.25635C6.73241 7.29087 3.96025 9.24403 2.24506 11.9954C0.52987 14.7467 2.1787 16.5402 4.93211 16.308C7.68552 16.0758 12.2966 14.5166 15.05 12.4599C17.8035 10.4031 17.6707 8.94345 17.2063 7.8819C16.7419 6.82034 14.6188 5.12842 10.5053 6.25635Z" fill="#FAB13D"/>
<path fill-rule="evenodd" clip-rule="evenodd" d="M1.90891 11.7858C3.68586 8.93538 6.54946 6.93035 10.4004 5.87443C14.6429 4.71112 17.0027 6.42939 17.5687 7.72306C17.8245 8.3078 18.0047 9.04396 17.7099 9.9233C17.421 10.7855 16.6953 11.7246 15.2867 12.7768C13.8692 13.8357 11.9902 14.7556 10.1273 15.4396C8.26475 16.1233 6.38776 16.5823 4.96513 16.7023C3.51534 16.8245 2.24527 16.4225 1.58988 15.4995C0.918827 14.5545 1.00631 13.2337 1.90891 11.7858ZM2.24482 11.9952C3.96 9.24385 6.73217 7.29069 10.505 6.25617C14.6186 5.12825 16.7416 6.82017 17.2061 7.88172C17.6705 8.94328 17.8032 10.4029 15.0498 12.4597C12.2964 14.5165 7.68528 16.0756 4.93187 16.3078C2.17846 16.5401 0.52963 14.7466 2.24482 11.9952Z" fill="#B7690D"/>
<path d="M5.20544 9.41902C3.65556 10.3675 2.67072 11.5967 2.2605 13.0457C1.85028 14.4947 2.81742 15.0821 4.01597 14.6231C5.21453 14.1642 5.4912 12.7592 6.4543 11.4862C7.4174 10.2131 8.45921 9.73044 8.45921 9.0324C8.45921 8.49377 6.89527 8.38489 5.20544 9.41902Z" fill="#FCC66F"/>
<path fill-rule="evenodd" clip-rule="evenodd" d="M4.62072 10.8271C4.78271 10.9739 4.79502 11.2243 4.64822 11.3863C4.05082 12.0455 3.79449 12.6126 3.59682 13.0499C3.57272 13.1033 3.54949 13.1547 3.52662 13.2041C3.43477 13.4024 3.1995 13.4888 3.00111 13.397C2.80273 13.3051 2.71636 13.0698 2.80821 12.8715C2.8295 12.8255 2.85174 12.7761 2.87538 12.7237C3.07592 12.2787 3.3776 11.6094 4.06161 10.8546C4.20841 10.6926 4.45873 10.6803 4.62072 10.8271Z" fill="#FFDFAD"/>
<path fill-rule="evenodd" clip-rule="evenodd" d="M3.51953 16.2329C6.55842 15.6224 10.5432 14.0981 13.097 12.1904C16.172 9.89343 16.0238 8.26329 15.5051 7.07775C15.3719 6.77343 15.1168 6.42274 14.7333 6.09082C16.1378 6.46646 16.9417 7.27656 17.2065 7.88178C17.6709 8.94334 17.8036 10.403 15.0502 12.4598C12.2968 14.5165 7.68567 16.0757 4.93226 16.3079C4.41789 16.3513 3.94207 16.324 3.51953 16.2329Z" fill="#EDA024"/>
<path d="M7.58633 12.5924C6.84324 11.1328 4.64494 10.3698 3.63867 10.1707C4.01022 9.56033 4.76657 9.05388 5.09831 8.87695C6.71718 9.88543 7.43152 11.7741 7.58633 12.5924Z" fill="#D08814"/>
<path d="M10.9279 11.2768C10.0601 9.30177 8.059 7.76522 7.05273 7.56618C7.6961 7.02754 8.95034 6.74065 9.28208 6.56372C11.1374 7.56618 10.7731 10.4585 10.9279 11.2768Z" fill="#A56112"/>
<path d="M14.1894 9.00259C13.3814 6.98272 12.3976 6.55885 11.5311 6.00978C11.9899 5.81568 13.1727 5.86084 13.546 5.81568C14.324 6.89294 14.324 7.76075 14.1894 9.00259Z" fill="#9C5807"/>
<path fill-rule="evenodd" clip-rule="evenodd" d="M4.94394 8.89353C4.96699 8.78668 5.07229 8.71875 5.17914 8.74179C5.61786 8.83642 6.17474 9.19333 6.68568 9.78926C7.20114 10.3905 7.68255 11.2488 7.96277 12.3736C7.9892 12.4796 7.92464 12.587 7.81857 12.6135C7.71251 12.6399 7.60511 12.5753 7.57868 12.4693C7.31279 11.402 6.85908 10.5996 6.38517 10.0469C5.90674 9.48888 5.42002 9.19869 5.09568 9.12873C4.98883 9.10568 4.9209 9.00038 4.94394 8.89353Z" fill="#FFDFAC"/>
<path fill-rule="evenodd" clip-rule="evenodd" d="M9.38859 6.52615C9.45069 6.43621 9.57396 6.41364 9.6639 6.47574C10.0236 6.72413 10.4352 7.28856 10.7558 8.07302C11.0797 8.86541 11.3204 9.90451 11.3204 11.1272C11.3204 11.2365 11.2318 11.3251 11.1225 11.3251C11.0132 11.3251 10.9245 11.2365 10.9245 11.1272C10.9245 9.95599 10.6939 8.96775 10.3894 8.22279C10.0817 7.4699 9.70767 6.98698 9.439 6.80147C9.34905 6.73937 9.32648 6.6161 9.38859 6.52615Z" fill="#FFDFAC"/>
<path fill-rule="evenodd" clip-rule="evenodd" d="M13.543 5.78738C13.6124 5.70292 13.7371 5.69069 13.8216 5.76007C14.1817 6.05589 14.4365 6.5586 14.5729 7.12338C14.7103 7.69283 14.7337 8.35025 14.6083 8.9814C14.587 9.08861 14.4828 9.15825 14.3756 9.13694C14.2684 9.11563 14.1987 9.01144 14.22 8.90423C14.334 8.33094 14.3125 7.73155 14.1881 7.21626C14.0626 6.69629 13.8386 6.28632 13.5703 6.06595C13.4859 5.99656 13.4737 5.87185 13.543 5.78738Z" fill="#FFDFAC"/>
<path d="M14.1402 11.5851C14.0894 11.7925 13.924 11.9303 13.7709 11.8928C13.6178 11.8553 13.5348 11.6566 13.5857 11.4492C13.6365 11.2417 13.8019 11.1039 13.955 11.1414C14.1082 11.179 14.1911 11.3776 14.1402 11.5851Z" fill="#D48A15"/>
<path d="M12.7702 12.1062C12.7289 12.2748 12.5946 12.3867 12.4702 12.3562C12.3458 12.3257 12.2784 12.1644 12.3197 11.9958C12.361 11.8273 12.4954 11.7154 12.6198 11.7459C12.7442 11.7764 12.8115 11.9377 12.7702 12.1062Z" fill="#D48A15"/>
<path d="M13.7507 12.6148C13.7094 12.7833 13.5751 12.8952 13.4507 12.8648C13.3263 12.8343 13.2589 12.6729 13.3002 12.5044C13.3415 12.3358 13.4758 12.2239 13.6002 12.2544C13.7246 12.2849 13.792 12.4462 13.7507 12.6148Z" fill="#D48A15"/>
<path d="M13.4011 10.7303C13.3598 10.8988 13.2255 11.0107 13.1011 10.9802C12.9767 10.9498 12.9093 10.7884 12.9506 10.6199C12.9919 10.4513 13.1262 10.3394 13.2506 10.3699C13.375 10.4004 13.4424 10.5617 13.4011 10.7303Z" fill="#D48A15"/>
<path d="M15.1052 11.1609C15.0639 11.3295 14.9296 11.4414 14.8052 11.4109C14.6808 11.3804 14.6134 11.2191 14.6547 11.0505C14.696 10.882 14.8303 10.7701 14.9547 10.8006C15.0791 10.831 15.1465 10.9924 15.1052 11.1609Z" fill="#D48A15"/>
<path d="M14.6219 10.4711C14.5754 10.6611 14.4239 10.7873 14.2836 10.753C14.1433 10.7186 14.0673 10.5366 14.1139 10.3466C14.1605 10.1565 14.312 10.0303 14.4522 10.0647C14.5925 10.0991 14.6685 10.281 14.6219 10.4711Z" fill="#D48A15"/>
<path d="M16.1483 10.5809C16.1017 10.771 15.9502 10.8972 15.81 10.8628C15.6697 10.8285 15.5937 10.6465 15.6403 10.4564C15.6869 10.2664 15.8383 10.1402 15.9786 10.1745C16.1189 10.2089 16.1949 10.3909 16.1483 10.5809Z" fill="#D48A15"/>
<path d="M15.7713 9.76819C15.7248 9.95826 15.5733 10.0845 15.433 10.0501C15.2927 10.0157 15.2167 9.83377 15.2633 9.6437C15.3099 9.45364 15.4614 9.32743 15.6017 9.36181C15.742 9.39618 15.8179 9.57813 15.7713 9.76819Z" fill="#D48A15"/>
<path d="M17.0887 9.63904C17.0421 9.8291 16.8907 9.95531 16.7504 9.92094C16.6101 9.88656 16.5341 9.70461 16.5807 9.51455C16.6273 9.32449 16.7788 9.19828 16.919 9.23265C17.0593 9.26703 17.1353 9.44898 17.0887 9.63904Z" fill="#D48A15"/>
<path d="M15.7226 11.4124C15.6921 11.5368 15.593 11.6194 15.5012 11.5969C15.4094 11.5744 15.3596 11.4553 15.3901 11.3309C15.4206 11.2065 15.5197 11.124 15.6115 11.1464C15.7033 11.1689 15.7531 11.288 15.7226 11.4124Z" fill="#D48A15"/>
<path d="M14.6894 12.1905C14.6589 12.3149 14.5598 12.3975 14.468 12.375C14.3762 12.3525 14.3264 12.2334 14.3569 12.109C14.3874 11.9846 14.4865 11.902 14.5783 11.9245C14.6701 11.947 14.7199 12.0661 14.6894 12.1905Z" fill="#D48A15"/>
<path d="M11.8544 13.709C11.8239 13.8334 11.7248 13.916 11.633 13.8935C11.5412 13.871 11.4915 13.7519 11.522 13.6276C11.5524 13.5032 11.6516 13.4206 11.7434 13.4431C11.8352 13.4656 11.8849 13.5846 11.8544 13.709Z" fill="#D48A15"/>
<path d="M12.9306 12.9607C12.9001 13.0851 12.801 13.1677 12.7092 13.1452C12.6174 13.1227 12.5677 13.0037 12.5981 12.8793C12.6286 12.7549 12.7277 12.6723 12.8196 12.6948C12.9114 12.7173 12.9611 12.8364 12.9306 12.9607Z" fill="#D48A15"/>
<path d="M12.1356 12.8092C12.1108 12.9104 12.0302 12.9775 11.9556 12.9592C11.8809 12.9409 11.8405 12.8441 11.8653 12.743C11.8901 12.6418 11.9707 12.5746 12.0453 12.5929C12.12 12.6112 12.1604 12.7081 12.1356 12.8092Z" fill="#D48A15"/>
<path d="M12.4882 11.2608C12.4577 11.3852 12.3586 11.4678 12.2668 11.4453C12.175 11.4228 12.1253 11.3037 12.1557 11.1793C12.1862 11.0549 12.2854 10.9723 12.3772 10.9948C12.469 11.0173 12.5187 11.1364 12.4882 11.2608Z" fill="#D48A15"/>
<path d="M14.0292 9.96855C13.9987 10.0929 13.8996 10.1755 13.8078 10.153C13.716 10.1305 13.6663 10.0115 13.6968 9.88708C13.7272 9.7627 13.8264 9.6801 13.9182 9.7026C14.01 9.7251 14.0597 9.84417 14.0292 9.96855Z" fill="#D48A15"/>
<path d="M15.0458 9.14531C15.0153 9.26969 14.9162 9.35229 14.8244 9.32979C14.7326 9.3073 14.6829 9.18822 14.7134 9.06384C14.7438 8.93946 14.843 8.85686 14.9348 8.87936C15.0266 8.90186 15.0763 9.02093 15.0458 9.14531Z" fill="#D48A15"/>
<path d="M16.1767 8.94536C16.1462 9.06974 16.0471 9.15234 15.9553 9.12984C15.8635 9.10734 15.8137 8.98827 15.8442 8.86389C15.8747 8.7395 15.9738 8.65691 16.0656 8.67941C16.1575 8.7019 16.2072 8.82098 16.1767 8.94536Z" fill="#D48A15"/>
<path d="M16.8896 8.86382C16.8591 8.9882 16.76 9.0708 16.6682 9.0483C16.5764 9.0258 16.5266 8.90673 16.5571 8.78235C16.5876 8.65796 16.6867 8.57537 16.7785 8.59786C16.8703 8.62036 16.9201 8.73943 16.8896 8.86382Z" fill="#D48A15"/>
</svg>
